<?xml version="1.0" encoding="UTF-8" standalone="no"?>
<!DOCTYPE svg PUBLIC "-//W3C//DTD SVG 1.1//EN" "http://www.w3.org/Graphics/SVG/1.1/DTD/svg11.dtd">
<svg width="100%" height="100%" viewBox="0 0 2481 3508" version="1.1" xmlns="http://www.w3.org/2000/svg" xmlns:xlink="http://www.w3.org/1999/xlink" xml:space="preserve" style="fill-rule:evenodd;clip-rule:evenodd;stroke-linejoin:round;stroke-miterlimit:1.41421;">
    <g transform="matrix(11.9947,0,0,11.9947,-3964.84,-4600.87)">
        <path d="M365.953,431.525C366.687,431.759 367.453,431.942 368.253,432.075C368.92,432.242 369.678,432.375 370.528,432.475C371.378,432.575 372.237,432.625 373.103,432.625C374.637,432.625 375.403,432.059 375.403,430.925C375.403,430.492 375.17,430.05 374.703,429.6C374.237,429.15 373.645,428.65 372.928,428.1C372.212,427.55 371.445,426.942 370.628,426.275C369.812,425.609 369.045,424.842 368.328,423.975C367.612,423.109 367.02,422.134 366.553,421.05C366.087,419.967 365.853,418.725 365.853,417.325C365.853,415.759 366.137,414.375 366.703,413.175C367.27,411.975 368.053,410.975 369.053,410.175C370.053,409.375 371.228,408.767 372.578,408.35C373.928,407.934 375.37,407.725 376.903,407.725C377.703,407.725 378.503,407.767 379.303,407.85C380.103,407.934 380.82,408.009 381.453,408.075C382.187,408.175 382.903,408.275 383.603,408.375L383.603,417.725C383.337,417.692 383.037,417.659 382.703,417.625C382.437,417.592 382.137,417.559 381.803,417.525C381.47,417.492 381.12,417.475 380.753,417.475C380.553,417.475 380.303,417.484 380.003,417.5C379.703,417.517 379.42,417.559 379.153,417.625C378.887,417.692 378.653,417.809 378.453,417.975C378.253,418.142 378.153,418.375 378.153,418.675C378.153,418.942 378.378,419.275 378.828,419.675C379.278,420.075 379.828,420.542 380.478,421.075C381.128,421.609 381.845,422.225 382.628,422.925C383.412,423.625 384.128,424.425 384.778,425.325C385.428,426.225 385.978,427.242 386.428,428.375C386.878,429.509 387.103,430.775 387.103,432.175C387.103,433.642 386.87,435.017 386.403,436.3C385.937,437.584 385.212,438.7 384.228,439.65C383.245,440.6 381.987,441.35 380.453,441.9C378.92,442.45 377.103,442.725 375.003,442.725C373.737,442.725 372.562,442.667 371.478,442.55C370.395,442.434 369.437,442.292 368.603,442.125C367.637,441.959 366.753,441.759 365.953,441.525L365.953,431.525Z" style="fill-rule:nonzero;"/>
        <path d="M358.853,477.725C358.853,475.325 359.312,473.059 360.228,470.925C361.145,468.792 362.395,466.934 363.978,465.35C365.562,463.767 367.42,462.517 369.553,461.6C371.687,460.684 373.953,460.225 376.353,460.225C378.753,460.225 381.02,460.684 383.153,461.6C385.287,462.517 387.145,463.767 388.728,465.35C390.312,466.934 391.562,468.792 392.478,470.925C393.395,473.059 393.853,475.325 393.853,477.725C393.853,480.125 393.395,482.392 392.478,484.525C391.562,486.659 390.312,488.517 388.728,490.1C387.145,491.684 385.287,492.934 383.153,493.85C381.02,494.767 378.753,495.225 376.353,495.225C373.953,495.225 371.687,494.767 369.553,493.85C367.42,492.934 365.562,491.684 363.978,490.1C362.395,488.517 361.145,486.659 360.228,484.525C359.312,482.392 358.853,480.125 358.853,477.725ZM369.353,477.725C369.353,478.692 369.537,479.6 369.903,480.45C370.27,481.3 370.77,482.042 371.403,482.675C372.037,483.309 372.778,483.809 373.628,484.175C374.478,484.542 375.387,484.725 376.353,484.725C377.32,484.725 378.228,484.542 379.078,484.175C379.928,483.809 380.67,483.309 381.303,482.675C381.937,482.042 382.437,481.3 382.803,480.45C383.17,479.6 383.353,478.692 383.353,477.725C383.353,476.759 383.17,475.85 382.803,475C382.437,474.15 381.937,473.409 381.303,472.775C380.67,472.142 379.928,471.642 379.078,471.275C378.228,470.909 377.32,470.725 376.353,470.725C375.387,470.725 374.478,470.909 373.628,471.275C372.778,471.642 372.037,472.142 371.403,472.775C370.77,473.409 370.27,474.15 369.903,475C369.537,475.85 369.353,476.759 369.353,477.725Z" style="fill-rule:nonzero;"/>
        <path d="M367.078,513.525L378.178,513.525L378.178,538.125L387.378,538.125L387.378,546.875L367.078,546.875L367.078,513.525Z" style="fill-rule:nonzero;"/>
        <rect x="370.703" y="566.025" width="11.3" height="33.35" style="fill-rule:nonzero;"/>
        <path d="M362.228,651.875L362.228,618.525L371.478,618.525C374.612,618.525 377.403,618.875 379.853,619.575C382.303,620.275 384.37,621.325 386.053,622.725C387.737,624.125 389.02,625.867 389.903,627.95C390.787,630.034 391.228,632.442 391.228,635.175C391.228,637.909 390.787,640.317 389.903,642.4C389.02,644.484 387.737,646.225 386.053,647.625C384.37,649.025 382.303,650.084 379.853,650.8C377.403,651.517 374.612,651.875 371.478,651.875L362.228,651.875ZM372.878,642.375C375.378,642.375 377.312,641.784 378.678,640.6C380.045,639.417 380.728,637.609 380.728,635.175C380.728,632.742 380.045,630.942 378.678,629.775C377.312,628.609 375.378,628.025 372.878,628.025L372.878,642.375Z" style="fill-rule:nonzero;"/>
    </g>
    <g transform="matrix(11.9947,0,0,11.9947,-6344.79,-4437.78)">
        <path d="M625.119,423.929C625.586,424.029 626.086,424.112 626.619,424.179C627.086,424.245 627.578,424.304 628.094,424.354C628.611,424.404 629.136,424.429 629.669,424.429C630.603,424.429 631.511,424.32 632.394,424.104C633.278,423.887 634.069,423.529 634.769,423.029C635.469,422.529 636.028,421.887 636.444,421.104C636.861,420.32 637.069,419.362 637.069,418.229C637.069,417.262 636.828,416.345 636.344,415.479C635.861,414.612 635.244,413.779 634.494,412.979C633.744,412.179 632.944,411.412 632.094,410.679C631.244,409.945 630.444,409.204 629.694,408.454C628.944,407.704 628.328,406.954 627.844,406.204C627.361,405.454 627.119,404.679 627.119,403.879C627.119,402.679 627.503,401.754 628.269,401.104C629.036,400.454 630.269,400.129 631.969,400.129C632.236,400.129 632.511,400.137 632.794,400.154C633.078,400.17 633.353,400.195 633.619,400.229C633.886,400.262 634.153,400.279 634.419,400.279L634.419,398.979C634.186,398.979 633.936,398.962 633.669,398.929C633.436,398.895 633.178,398.87 632.894,398.854C632.611,398.837 632.319,398.829 632.019,398.829C630.219,398.829 628.736,399.237 627.569,400.054C626.403,400.87 625.819,402.145 625.819,403.879C625.819,404.812 626.061,405.687 626.544,406.504C627.028,407.32 627.644,408.12 628.394,408.904C629.144,409.687 629.944,410.445 630.794,411.179C631.644,411.912 632.444,412.654 633.194,413.404C633.944,414.154 634.561,414.929 635.044,415.729C635.528,416.529 635.769,417.362 635.769,418.229C635.769,419.829 635.228,421.045 634.144,421.879C633.061,422.712 631.569,423.129 629.669,423.129C628.536,423.129 627.503,423.045 626.569,422.879C626.069,422.812 625.586,422.729 625.119,422.629L625.119,423.929ZM620.919,417.929C621.653,418.162 622.419,418.345 623.219,418.479C623.886,418.645 624.644,418.779 625.494,418.879C626.344,418.979 627.203,419.029 628.069,419.029C629.603,419.029 630.369,418.462 630.369,417.329C630.369,416.895 630.136,416.454 629.669,416.004C629.203,415.554 628.611,415.054 627.894,414.504C627.178,413.954 626.411,413.345 625.594,412.679C624.778,412.012 624.011,411.245 623.294,410.379C622.578,409.512 621.986,408.537 621.519,407.454C621.053,406.37 620.819,405.129 620.819,403.729C620.819,402.162 621.103,400.779 621.669,399.579C622.236,398.379 623.019,397.379 624.019,396.579C625.019,395.779 626.194,395.17 627.544,394.754C628.894,394.337 630.336,394.129 631.869,394.129C632.669,394.129 633.469,394.17 634.269,394.254C635.069,394.337 635.786,394.412 636.419,394.479C637.153,394.579 637.869,394.679 638.569,394.779L638.569,404.129C638.303,404.095 638.003,404.062 637.669,404.029C637.403,403.995 637.103,403.962 636.769,403.929C636.436,403.895 636.086,403.879 635.719,403.879C635.519,403.879 635.269,403.887 634.969,403.904C634.669,403.92 634.386,403.962 634.119,404.029C633.853,404.095 633.619,404.212 633.419,404.379C633.219,404.545 633.119,404.779 633.119,405.079C633.119,405.345 633.344,405.679 633.794,406.079C634.244,406.479 634.794,406.945 635.444,407.479C636.094,408.012 636.811,408.629 637.594,409.329C638.378,410.029 639.094,410.829 639.744,411.729C640.394,412.629 640.944,413.645 641.394,414.779C641.844,415.912 642.069,417.179 642.069,418.579C642.069,420.045 641.836,421.42 641.369,422.704C640.903,423.987 640.178,425.104 639.194,426.054C638.211,427.004 636.953,427.754 635.419,428.304C633.886,428.854 632.069,429.129 629.969,429.129C628.703,429.129 627.528,429.07 626.444,428.954C625.361,428.837 624.403,428.695 623.569,428.529C622.603,428.362 621.719,428.162 620.919,427.929L620.919,417.929Z" style="fill-rule:nonzero;"/>
        <path d="M654.719,416.679C656.019,416.679 657.286,416.545 658.519,416.279L663.269,424.279L664.819,424.279L659.819,415.879C661.619,415.245 663.053,414.27 664.119,412.954C665.186,411.637 665.719,409.929 665.719,407.829C665.719,406.362 665.436,405.079 664.869,403.979C664.303,402.879 663.528,401.954 662.544,401.204C661.561,400.454 660.403,399.887 659.069,399.504C657.736,399.12 656.286,398.929 654.719,398.929L649.319,398.929L649.319,424.279L650.619,424.279L650.619,416.679L654.719,416.679ZM650.619,415.479L650.619,400.129L654.719,400.129C657.753,400.129 660.128,400.795 661.844,402.129C663.561,403.462 664.419,405.362 664.419,407.829C664.419,410.295 663.561,412.187 661.844,413.504C660.128,414.82 657.753,415.479 654.719,415.479L650.619,415.479ZM644.319,394.929L655.819,394.929C657.953,394.929 659.928,395.212 661.744,395.779C663.561,396.345 665.136,397.179 666.469,398.279C667.803,399.379 668.844,400.737 669.594,402.354C670.344,403.97 670.719,405.829 670.719,407.929C670.719,409.595 670.486,411.012 670.019,412.179C669.553,413.345 669.036,414.312 668.469,415.079C667.803,415.945 667.053,416.679 666.219,417.279L672.469,428.279L659.969,428.279L654.969,419.829L654.969,428.279L644.319,428.279L644.319,394.929ZM654.969,411.329L655.519,411.329C656.786,411.329 657.861,411.045 658.744,410.479C659.628,409.912 660.069,408.962 660.069,407.629C660.069,406.295 659.628,405.345 658.744,404.779C657.861,404.212 656.786,403.929 655.519,403.929L654.969,403.929L654.969,411.329Z" style="fill-rule:nonzero;"/>
        <path d="M699.419,407.629C699.419,409.929 699.019,411.887 698.219,413.504C697.419,415.12 696.328,416.429 694.944,417.429C693.561,418.429 691.944,419.162 690.094,419.629C688.244,420.095 686.253,420.329 684.119,420.329L684.119,428.279L673.469,428.279L673.469,394.929L684.119,394.929C686.253,394.929 688.244,395.162 690.094,395.629C691.944,396.095 693.561,396.829 694.944,397.829C696.328,398.829 697.419,400.137 698.219,401.754C699.019,403.37 699.419,405.329 699.419,407.629ZM694.569,407.629C694.569,406.129 694.311,404.829 693.794,403.729C693.278,402.629 692.553,401.729 691.619,401.029C690.686,400.329 689.578,399.804 688.294,399.454C687.011,399.104 685.619,398.929 684.119,398.929L678.469,398.929L678.469,424.279L679.769,424.279L679.769,416.329L684.119,416.329C685.619,416.329 687.011,416.154 688.294,415.804C689.578,415.454 690.686,414.929 691.619,414.229C692.553,413.529 693.278,412.629 693.794,411.529C694.311,410.429 694.569,409.129 694.569,407.629ZM693.169,407.629C693.169,409.062 692.919,410.262 692.419,411.229C691.919,412.195 691.253,412.962 690.419,413.529C689.586,414.095 688.628,414.504 687.544,414.754C686.461,415.004 685.319,415.129 684.119,415.129L679.769,415.129L679.769,400.129L684.119,400.129C685.319,400.129 686.461,400.254 687.544,400.504C688.628,400.754 689.586,401.162 690.419,401.729C691.253,402.295 691.919,403.062 692.419,404.029C692.919,404.995 693.169,406.195 693.169,407.629ZM684.119,411.329L684.569,411.329C685.969,411.329 686.978,411.004 687.594,410.354C688.211,409.704 688.519,408.795 688.519,407.629C688.519,406.462 688.211,405.554 687.594,404.904C686.978,404.254 685.969,403.929 684.569,403.929L684.119,403.929L684.119,411.329Z" style="fill-rule:nonzero;"/>
        <path d="M613.044,464.129C613.044,461.729 613.503,459.462 614.419,457.329C615.336,455.195 616.586,453.337 618.169,451.754C619.753,450.17 621.611,448.92 623.744,448.004C625.878,447.087 628.144,446.629 630.544,446.629C632.944,446.629 635.211,447.087 637.344,448.004C639.478,448.92 641.336,450.17 642.919,451.754C644.503,453.337 645.753,455.195 646.669,457.329C647.586,459.462 648.044,461.729 648.044,464.129C648.044,466.529 647.586,468.795 646.669,470.929C645.753,473.062 644.503,474.92 642.919,476.504C641.336,478.087 639.478,479.337 637.344,480.254C635.211,481.17 632.944,481.629 630.544,481.629C628.144,481.629 625.878,481.17 623.744,480.254C621.611,479.337 619.753,478.087 618.169,476.504C616.586,474.92 615.336,473.062 614.419,470.929C613.503,468.795 613.044,466.529 613.044,464.129ZM617.744,464.129C617.744,465.895 618.078,467.554 618.744,469.104C619.411,470.654 620.328,472.012 621.494,473.179C622.661,474.345 624.019,475.262 625.569,475.929C627.119,476.595 628.778,476.929 630.544,476.929C632.311,476.929 633.969,476.595 635.519,475.929C637.069,475.262 638.428,474.345 639.594,473.179C640.761,472.012 641.678,470.654 642.344,469.104C643.011,467.554 643.344,465.895 643.344,464.129C643.344,462.362 643.011,460.704 642.344,459.154C641.678,457.604 640.761,456.245 639.594,455.079C638.428,453.912 637.069,452.995 635.519,452.329C633.969,451.662 632.311,451.329 630.544,451.329C628.778,451.329 627.119,451.662 625.569,452.329C624.019,452.995 622.661,453.912 621.494,455.079C620.328,456.245 619.411,457.604 618.744,459.154C618.078,460.704 617.744,462.362 617.744,464.129ZM623.544,464.129C623.544,465.095 623.728,466.004 624.094,466.854C624.461,467.704 624.961,468.445 625.594,469.079C626.228,469.712 626.969,470.212 627.819,470.579C628.669,470.945 629.578,471.129 630.544,471.129C631.511,471.129 632.419,470.945 633.269,470.579C634.119,470.212 634.861,469.712 635.494,469.079C636.128,468.445 636.628,467.704 636.994,466.854C637.361,466.004 637.544,465.095 637.544,464.129C637.544,463.162 637.361,462.254 636.994,461.404C636.628,460.554 636.128,459.812 635.494,459.179C634.861,458.545 634.119,458.045 633.269,457.679C632.419,457.312 631.511,457.129 630.544,457.129C629.578,457.129 628.669,457.312 627.819,457.679C626.969,458.045 626.228,458.545 625.594,459.179C624.961,459.812 624.461,460.554 624.094,461.404C623.728,462.254 623.544,463.162 623.544,464.129ZM630.544,475.629C628.944,475.629 627.453,475.329 626.069,474.729C624.686,474.129 623.469,473.304 622.419,472.254C621.369,471.204 620.544,469.987 619.944,468.604C619.344,467.22 619.044,465.729 619.044,464.129C619.044,462.529 619.344,461.037 619.944,459.654C620.544,458.27 621.369,457.054 622.419,456.004C623.469,454.954 624.686,454.129 626.069,453.529C627.453,452.929 628.944,452.629 630.544,452.629C632.144,452.629 633.636,452.929 635.019,453.529C636.403,454.129 637.619,454.954 638.669,456.004C639.719,457.054 640.544,458.27 641.144,459.654C641.744,461.037 642.044,462.529 642.044,464.129C642.044,465.729 641.744,467.22 641.144,468.604C640.544,469.987 639.719,471.204 638.669,472.254C637.619,473.304 636.403,474.129 635.019,474.729C633.636,475.329 632.144,475.629 630.544,475.629Z" style="fill-rule:nonzero;"/>
        <path d="M656.344,464.129C656.344,462.529 656.619,461.029 657.169,459.629C657.719,458.229 658.494,457.012 659.494,455.979C660.494,454.945 661.711,454.129 663.144,453.529C664.578,452.929 666.178,452.629 667.944,452.629C668.811,452.629 669.586,452.687 670.269,452.804C670.953,452.92 671.528,453.062 671.994,453.229C672.561,453.395 673.044,453.595 673.444,453.829L674.144,452.629C673.611,452.395 673.044,452.179 672.444,451.979C671.878,451.812 671.228,451.662 670.494,451.529C669.761,451.395 668.911,451.329 667.944,451.329C666.244,451.329 664.619,451.629 663.069,452.229C661.519,452.829 660.153,453.687 658.969,454.804C657.786,455.92 656.836,457.27 656.119,458.854C655.403,460.437 655.044,462.195 655.044,464.129C655.044,466.095 655.386,467.862 656.069,469.429C656.753,470.995 657.694,472.337 658.894,473.454C660.094,474.57 661.494,475.429 663.094,476.029C664.694,476.629 666.394,476.929 668.194,476.929C669.194,476.929 670.094,476.845 670.894,476.679C671.694,476.512 672.378,476.329 672.944,476.129C673.578,475.895 674.144,475.629 674.644,475.329L673.944,474.129C673.511,474.429 673.011,474.679 672.444,474.879C671.944,475.079 671.344,475.254 670.644,475.404C669.944,475.554 669.128,475.629 668.194,475.629C666.361,475.629 664.711,475.329 663.244,474.729C661.778,474.129 660.536,473.312 659.519,472.279C658.503,471.245 657.719,470.029 657.169,468.629C656.619,467.229 656.344,465.729 656.344,464.129ZM650.044,464.129C650.044,461.462 650.511,459.054 651.444,456.904C652.378,454.754 653.644,452.912 655.244,451.379C656.844,449.845 658.711,448.67 660.844,447.854C662.978,447.037 665.244,446.629 667.644,446.629C669.544,446.629 671.236,446.812 672.719,447.179C674.203,447.545 675.478,447.962 676.544,448.429C677.778,448.962 678.844,449.545 679.744,450.179L674.494,459.429C673.961,459.029 673.378,458.645 672.744,458.279C672.178,458.012 671.503,457.754 670.719,457.504C669.936,457.254 669.044,457.129 668.044,457.129C667.011,457.129 666.061,457.312 665.194,457.679C664.328,458.045 663.569,458.545 662.919,459.179C662.269,459.812 661.761,460.554 661.394,461.404C661.028,462.254 660.844,463.162 660.844,464.129C660.844,465.095 661.036,466.004 661.419,466.854C661.803,467.704 662.328,468.445 662.994,469.079C663.661,469.712 664.444,470.212 665.344,470.579C666.244,470.945 667.228,471.129 668.294,471.129C669.361,471.129 670.311,470.995 671.144,470.729C671.978,470.462 672.678,470.162 673.244,469.829C673.911,469.462 674.494,469.029 674.994,468.529L680.244,477.779C679.344,478.512 678.278,479.162 677.044,479.729C675.978,480.195 674.694,480.629 673.194,481.029C671.694,481.429 669.978,481.629 668.044,481.629C665.444,481.629 663.044,481.204 660.844,480.354C658.644,479.504 656.744,478.312 655.144,476.779C653.544,475.245 652.294,473.404 651.394,471.254C650.494,469.104 650.044,466.729 650.044,464.129Z" style="fill-rule:nonzero;"/>
        <path d="M707.444,460.129C707.444,462.429 707.044,464.387 706.244,466.004C705.444,467.62 704.353,468.929 702.969,469.929C701.586,470.929 699.969,471.662 698.119,472.129C696.269,472.595 694.278,472.829 692.144,472.829L692.144,480.779L681.494,480.779L681.494,447.429L692.144,447.429C694.278,447.429 696.269,447.662 698.119,448.129C699.969,448.595 701.586,449.329 702.969,450.329C704.353,451.329 705.444,452.637 706.244,454.254C707.044,455.87 707.444,457.829 707.444,460.129ZM702.594,460.129C702.594,458.629 702.336,457.329 701.819,456.229C701.303,455.129 700.578,454.229 699.644,453.529C698.711,452.829 697.603,452.304 696.319,451.954C695.036,451.604 693.644,451.429 692.144,451.429L686.494,451.429L686.494,476.779L687.794,476.779L687.794,468.829L692.144,468.829C693.644,468.829 695.036,468.654 696.319,468.304C697.603,467.954 698.711,467.429 699.644,466.729C700.578,466.029 701.303,465.129 701.819,464.029C702.336,462.929 702.594,461.629 702.594,460.129ZM701.194,460.129C701.194,461.562 700.944,462.762 700.444,463.729C699.944,464.695 699.278,465.462 698.444,466.029C697.611,466.595 696.653,467.004 695.569,467.254C694.486,467.504 693.344,467.629 692.144,467.629L687.794,467.629L687.794,452.629L692.144,452.629C693.344,452.629 694.486,452.754 695.569,453.004C696.653,453.254 697.611,453.662 698.444,454.229C699.278,454.795 699.944,455.562 700.444,456.529C700.944,457.495 701.194,458.695 701.194,460.129ZM692.144,463.829L692.594,463.829C693.994,463.829 695.003,463.504 695.619,462.854C696.236,462.204 696.544,461.295 696.544,460.129C696.544,458.962 696.236,458.054 695.619,457.404C695.003,456.754 693.994,456.429 692.594,456.429L692.144,456.429L692.144,463.829Z" style="fill-rule:nonzero;"/>
        <path d="M624.869,499.929L635.969,499.929L635.969,524.529L645.169,524.529L645.169,533.279L624.869,533.279L624.869,499.929ZM642.369,529.279L642.369,528.079L631.169,528.079L631.169,503.929L629.869,503.929L629.869,529.279L642.369,529.279Z" style="fill-rule:nonzero;"/>
        <path d="M651.219,528.929C651.686,529.029 652.186,529.112 652.719,529.179C653.186,529.245 653.678,529.304 654.194,529.354C654.711,529.404 655.236,529.429 655.769,529.429C656.703,529.429 657.611,529.32 658.494,529.104C659.378,528.887 660.169,528.529 660.869,528.029C661.569,527.529 662.128,526.887 662.544,526.104C662.961,525.32 663.169,524.362 663.169,523.229C663.169,522.262 662.928,521.345 662.444,520.479C661.961,519.612 661.344,518.779 660.594,517.979C659.844,517.179 659.044,516.412 658.194,515.679C657.344,514.945 656.544,514.204 655.794,513.454C655.044,512.704 654.428,511.954 653.944,511.204C653.461,510.454 653.219,509.679 653.219,508.879C653.219,507.679 653.603,506.754 654.369,506.104C655.136,505.454 656.369,505.129 658.069,505.129C658.336,505.129 658.611,505.137 658.894,505.154C659.178,505.17 659.453,505.195 659.719,505.229C659.986,505.262 660.253,505.279 660.519,505.279L660.519,503.979C660.286,503.979 660.036,503.962 659.769,503.929C659.536,503.895 659.278,503.87 658.994,503.854C658.711,503.837 658.419,503.829 658.119,503.829C656.319,503.829 654.836,504.237 653.669,505.054C652.503,505.87 651.919,507.145 651.919,508.879C651.919,509.812 652.161,510.687 652.644,511.504C653.128,512.32 653.744,513.12 654.494,513.904C655.244,514.687 656.044,515.445 656.894,516.179C657.744,516.912 658.544,517.654 659.294,518.404C660.044,519.154 660.661,519.929 661.144,520.729C661.628,521.529 661.869,522.362 661.869,523.229C661.869,524.829 661.328,526.045 660.244,526.879C659.161,527.712 657.669,528.129 655.769,528.129C654.636,528.129 653.603,528.045 652.669,527.879C652.169,527.812 651.686,527.729 651.219,527.629L651.219,528.929ZM647.019,522.929C647.753,523.162 648.519,523.345 649.319,523.479C649.986,523.645 650.744,523.779 651.594,523.879C652.444,523.979 653.303,524.029 654.169,524.029C655.703,524.029 656.469,523.462 656.469,522.329C656.469,521.895 656.236,521.454 655.769,521.004C655.303,520.554 654.711,520.054 653.994,519.504C653.278,518.954 652.511,518.345 651.694,517.679C650.878,517.012 650.111,516.245 649.394,515.379C648.678,514.512 648.086,513.537 647.619,512.454C647.153,511.37 646.919,510.129 646.919,508.729C646.919,507.162 647.203,505.779 647.769,504.579C648.336,503.379 649.119,502.379 650.119,501.579C651.119,500.779 652.294,500.17 653.644,499.754C654.994,499.337 656.436,499.129 657.969,499.129C658.769,499.129 659.569,499.17 660.369,499.254C661.169,499.337 661.886,499.412 662.519,499.479C663.253,499.579 663.969,499.679 664.669,499.779L664.669,509.129C664.403,509.095 664.103,509.062 663.769,509.029C663.503,508.995 663.203,508.962 662.869,508.929C662.536,508.895 662.186,508.879 661.819,508.879C661.619,508.879 661.369,508.887 661.069,508.904C660.769,508.92 660.486,508.962 660.219,509.029C659.953,509.095 659.719,509.212 659.519,509.379C659.319,509.545 659.219,509.779 659.219,510.079C659.219,510.345 659.444,510.679 659.894,511.079C660.344,511.479 660.894,511.945 661.544,512.479C662.194,513.012 662.911,513.629 663.694,514.329C664.478,515.029 665.194,515.829 665.844,516.729C666.494,517.629 667.044,518.645 667.494,519.779C667.944,520.912 668.169,522.179 668.169,523.579C668.169,525.045 667.936,526.42 667.469,527.704C667.003,528.987 666.278,530.104 665.294,531.054C664.311,532.004 663.053,532.754 661.519,533.304C659.986,533.854 658.169,534.129 656.069,534.129C654.803,534.129 653.628,534.07 652.544,533.954C651.461,533.837 650.503,533.695 649.669,533.529C648.703,533.362 647.819,533.162 647.019,532.929L647.019,522.929Z" style="fill-rule:nonzero;"/>
        <path d="M696.369,512.629C696.369,514.929 695.969,516.887 695.169,518.504C694.369,520.12 693.278,521.429 691.894,522.429C690.511,523.429 688.894,524.162 687.044,524.629C685.194,525.095 683.203,525.329 681.069,525.329L681.069,533.279L670.419,533.279L670.419,499.929L681.069,499.929C683.203,499.929 685.194,500.162 687.044,500.629C688.894,501.095 690.511,501.829 691.894,502.829C693.278,503.829 694.369,505.137 695.169,506.754C695.969,508.37 696.369,510.329 696.369,512.629ZM691.519,512.629C691.519,511.129 691.261,509.829 690.744,508.729C690.228,507.629 689.503,506.729 688.569,506.029C687.636,505.329 686.528,504.804 685.244,504.454C683.961,504.104 682.569,503.929 681.069,503.929L675.419,503.929L675.419,529.279L676.719,529.279L676.719,521.329L681.069,521.329C682.569,521.329 683.961,521.154 685.244,520.804C686.528,520.454 687.636,519.929 688.569,519.229C689.503,518.529 690.228,517.629 690.744,516.529C691.261,515.429 691.519,514.129 691.519,512.629ZM690.119,512.629C690.119,514.062 689.869,515.262 689.369,516.229C688.869,517.195 688.203,517.962 687.369,518.529C686.536,519.095 685.578,519.504 684.494,519.754C683.411,520.004 682.269,520.129 681.069,520.129L676.719,520.129L676.719,505.129L681.069,505.129C682.269,505.129 683.411,505.254 684.494,505.504C685.578,505.754 686.536,506.162 687.369,506.729C688.203,507.295 688.869,508.062 689.369,509.029C689.869,509.995 690.119,511.195 690.119,512.629ZM681.069,516.329L681.519,516.329C682.919,516.329 683.928,516.004 684.544,515.354C685.161,514.704 685.469,513.795 685.469,512.629C685.469,511.462 685.161,510.554 684.544,509.904C683.928,509.254 682.919,508.929 681.519,508.929L681.069,508.929L681.069,516.329Z" style="fill-rule:nonzero;"/>
        <path d="M628.994,552.429L640.294,552.429L640.294,585.779L628.994,585.779L628.994,552.429ZM635.294,581.779L635.294,556.429L633.994,556.429L633.994,581.779L635.294,581.779Z" style="fill-rule:nonzero;"/>
        <path d="M647.094,581.429C647.561,581.529 648.061,581.612 648.594,581.679C649.061,581.745 649.553,581.804 650.069,581.854C650.586,581.904 651.111,581.929 651.644,581.929C652.578,581.929 653.486,581.82 654.369,581.604C655.253,581.387 656.044,581.029 656.744,580.529C657.444,580.029 658.003,579.387 658.419,578.604C658.836,577.82 659.044,576.862 659.044,575.729C659.044,574.762 658.803,573.845 658.319,572.979C657.836,572.112 657.219,571.279 656.469,570.479C655.719,569.679 654.919,568.912 654.069,568.179C653.219,567.445 652.419,566.704 651.669,565.954C650.919,565.204 650.303,564.454 649.819,563.704C649.336,562.954 649.094,562.179 649.094,561.379C649.094,560.179 649.478,559.254 650.244,558.604C651.011,557.954 652.244,557.629 653.944,557.629C654.211,557.629 654.486,557.637 654.769,557.654C655.053,557.67 655.328,557.695 655.594,557.729C655.861,557.762 656.128,557.779 656.394,557.779L656.394,556.479C656.161,556.479 655.911,556.462 655.644,556.429C655.411,556.395 655.153,556.37 654.869,556.354C654.586,556.337 654.294,556.329 653.994,556.329C652.194,556.329 650.711,556.737 649.544,557.554C648.378,558.37 647.794,559.645 647.794,561.379C647.794,562.312 648.036,563.187 648.519,564.004C649.003,564.82 649.619,565.62 650.369,566.404C651.119,567.187 651.919,567.945 652.769,568.679C653.619,569.412 654.419,570.154 655.169,570.904C655.919,571.654 656.536,572.429 657.019,573.229C657.503,574.029 657.744,574.862 657.744,575.729C657.744,577.329 657.203,578.545 656.119,579.379C655.036,580.212 653.544,580.629 651.644,580.629C650.511,580.629 649.478,580.545 648.544,580.379C648.044,580.312 647.561,580.229 647.094,580.129L647.094,581.429ZM642.894,575.429C643.628,575.662 644.394,575.845 645.194,575.979C645.861,576.145 646.619,576.279 647.469,576.379C648.319,576.479 649.178,576.529 650.044,576.529C651.578,576.529 652.344,575.962 652.344,574.829C652.344,574.395 652.111,573.954 651.644,573.504C651.178,573.054 650.586,572.554 649.869,572.004C649.153,571.454 648.386,570.845 647.569,570.179C646.753,569.512 645.986,568.745 645.269,567.879C644.553,567.012 643.961,566.037 643.494,564.954C643.028,563.87 642.794,562.629 642.794,561.229C642.794,559.662 643.078,558.279 643.644,557.079C644.211,555.879 644.994,554.879 645.994,554.079C646.994,553.279 648.169,552.67 649.519,552.254C650.869,551.837 652.311,551.629 653.844,551.629C654.644,551.629 655.444,551.67 656.244,551.754C657.044,551.837 657.761,551.912 658.394,551.979C659.128,552.079 659.844,552.179 660.544,552.279L660.544,561.629C660.278,561.595 659.978,561.562 659.644,561.529C659.378,561.495 659.078,561.462 658.744,561.429C658.411,561.395 658.061,561.379 657.694,561.379C657.494,561.379 657.244,561.387 656.944,561.404C656.644,561.42 656.361,561.462 656.094,561.529C655.828,561.595 655.594,561.712 655.394,561.879C655.194,562.045 655.094,562.279 655.094,562.579C655.094,562.845 655.319,563.179 655.769,563.579C656.219,563.979 656.769,564.445 657.419,564.979C658.069,565.512 658.786,566.129 659.569,566.829C660.353,567.529 661.069,568.329 661.719,569.229C662.369,570.129 662.919,571.145 663.369,572.279C663.819,573.412 664.044,574.679 664.044,576.079C664.044,577.545 663.811,578.92 663.344,580.204C662.878,581.487 662.153,582.604 661.169,583.554C660.186,584.504 658.928,585.254 657.394,585.804C655.861,586.354 654.044,586.629 651.944,586.629C650.678,586.629 649.503,586.57 648.419,586.454C647.336,586.337 646.378,586.195 645.544,586.029C644.578,585.862 643.694,585.662 642.894,585.429L642.894,575.429Z" style="fill-rule:nonzero;"/>
        <path d="M692.244,565.129C692.244,567.429 691.844,569.387 691.044,571.004C690.244,572.62 689.153,573.929 687.769,574.929C686.386,575.929 684.769,576.662 682.919,577.129C681.069,577.595 679.078,577.829 676.944,577.829L676.944,585.779L666.294,585.779L666.294,552.429L676.944,552.429C679.078,552.429 681.069,552.662 682.919,553.129C684.769,553.595 686.386,554.329 687.769,555.329C689.153,556.329 690.244,557.637 691.044,559.254C691.844,560.87 692.244,562.829 692.244,565.129ZM687.394,565.129C687.394,563.629 687.136,562.329 686.619,561.229C686.103,560.129 685.378,559.229 684.444,558.529C683.511,557.829 682.403,557.304 681.119,556.954C679.836,556.604 678.444,556.429 676.944,556.429L671.294,556.429L671.294,581.779L672.594,581.779L672.594,573.829L676.944,573.829C678.444,573.829 679.836,573.654 681.119,573.304C682.403,572.954 683.511,572.429 684.444,571.729C685.378,571.029 686.103,570.129 686.619,569.029C687.136,567.929 687.394,566.629 687.394,565.129ZM685.994,565.129C685.994,566.562 685.744,567.762 685.244,568.729C684.744,569.695 684.078,570.462 683.244,571.029C682.411,571.595 681.453,572.004 680.369,572.254C679.286,572.504 678.144,572.629 676.944,572.629L672.594,572.629L672.594,557.629L676.944,557.629C678.144,557.629 679.286,557.754 680.369,558.004C681.453,558.254 682.411,558.662 683.244,559.229C684.078,559.795 684.744,560.562 685.244,561.529C685.744,562.495 685.994,563.695 685.994,565.129ZM676.944,568.829L677.394,568.829C678.794,568.829 679.803,568.504 680.419,567.854C681.036,567.204 681.344,566.295 681.344,565.129C681.344,563.962 681.036,563.054 680.419,562.404C679.803,561.754 678.794,561.429 677.394,561.429L676.944,561.429L676.944,568.829Z" style="fill-rule:nonzero;"/>
        <path d="M624.369,638.279L624.369,604.929L633.619,604.929C636.753,604.929 639.544,605.279 641.994,605.979C644.444,606.679 646.511,607.729 648.194,609.129C649.878,610.529 651.161,612.27 652.044,614.354C652.928,616.437 653.369,618.845 653.369,621.579C653.369,624.312 652.928,626.72 652.044,628.804C651.161,630.887 649.878,632.629 648.194,634.029C646.511,635.429 644.444,636.487 641.994,637.204C639.544,637.92 636.753,638.279 633.619,638.279L624.369,638.279ZM630.669,633.079L630.669,610.129L633.619,610.129C637.853,610.129 641.144,611.087 643.494,613.004C645.844,614.92 647.019,617.779 647.019,621.579C647.019,625.379 645.844,628.245 643.494,630.179C641.144,632.112 637.853,633.079 633.619,633.079L630.669,633.079ZM629.369,634.279L633.619,634.279C638.486,634.279 642.161,633.17 644.644,630.954C647.128,628.737 648.369,625.612 648.369,621.579C648.369,617.545 647.128,614.429 644.644,612.229C642.161,610.029 638.486,608.929 633.619,608.929L629.369,608.929L629.369,634.279ZM635.019,628.779C637.519,628.779 639.453,628.187 640.819,627.004C642.186,625.82 642.869,624.012 642.869,621.579C642.869,619.145 642.186,617.345 640.819,616.179C639.453,615.012 637.519,614.429 635.019,614.429L635.019,628.779Z" style="fill-rule:nonzero;"/>
        <path d="M656.119,604.929L667.419,604.929L667.419,638.279L656.119,638.279L656.119,604.929ZM662.419,634.279L662.419,608.929L661.119,608.929L661.119,634.279L662.419,634.279Z" style="fill-rule:nonzero;"/>
        <path d="M696.869,617.629C696.869,619.929 696.469,621.887 695.669,623.504C694.869,625.12 693.778,626.429 692.394,627.429C691.011,628.429 689.394,629.162 687.544,629.629C685.694,630.095 683.703,630.329 681.569,630.329L681.569,638.279L670.919,638.279L670.919,604.929L681.569,604.929C683.703,604.929 685.694,605.162 687.544,605.629C689.394,606.095 691.011,606.829 692.394,607.829C693.778,608.829 694.869,610.137 695.669,611.754C696.469,613.37 696.869,615.329 696.869,617.629ZM692.019,617.629C692.019,616.129 691.761,614.829 691.244,613.729C690.728,612.629 690.003,611.729 689.069,611.029C688.136,610.329 687.028,609.804 685.744,609.454C684.461,609.104 683.069,608.929 681.569,608.929L675.919,608.929L675.919,634.279L677.219,634.279L677.219,626.329L681.569,626.329C683.069,626.329 684.461,626.154 685.744,625.804C687.028,625.454 688.136,624.929 689.069,624.229C690.003,623.529 690.728,622.629 691.244,621.529C691.761,620.429 692.019,619.129 692.019,617.629ZM690.619,617.629C690.619,619.062 690.369,620.262 689.869,621.229C689.369,622.195 688.703,622.962 687.869,623.529C687.036,624.095 686.078,624.504 684.994,624.754C683.911,625.004 682.769,625.129 681.569,625.129L677.219,625.129L677.219,610.129L681.569,610.129C682.769,610.129 683.911,610.254 684.994,610.504C686.078,610.754 687.036,611.162 687.869,611.729C688.703,612.295 689.369,613.062 689.869,614.029C690.369,614.995 690.619,616.195 690.619,617.629ZM681.569,621.329L682.019,621.329C683.419,621.329 684.428,621.004 685.044,620.354C685.661,619.704 685.969,618.795 685.969,617.629C685.969,616.462 685.661,615.554 685.044,614.904C684.428,614.254 683.419,613.929 682.019,613.929L681.569,613.929L681.569,621.329Z" style="fill-rule:nonzero;"/>
    </g>
    <g transform="matrix(9.71445e-17,-1,1,9.71445e-17,-1060.86,3715.07)">
        <path d="M1536.05,3418.36L1536.05,3451.66C1536.05,3453.92 1535.24,3455.88 1533.6,3457.53C1531.97,3459.18 1530.02,3460.01 1527.75,3460.01L1519.4,3460.01C1514.5,3460.01 1511.72,3457.22 1511.05,3451.66L1515.25,3451.66C1515.45,3454.46 1516.84,3455.86 1519.4,3455.86L1523.55,3455.86C1524.72,3455.86 1525.71,3455.45 1526.53,3454.63C1527.35,3453.82 1527.75,3452.82 1527.75,3451.66L1527.75,3443.36C1527.42,3446.12 1526.02,3447.51 1523.55,3447.51L1519.4,3447.51C1517.14,3447.51 1515.18,3446.69 1513.53,3445.06C1511.88,3443.42 1511.05,3441.46 1511.05,3439.16L1511.05,3426.66C1511.05,3424.39 1511.88,3422.44 1513.53,3420.81C1515.18,3419.17 1517.14,3418.36 1519.4,3418.36L1536.05,3418.36ZM1527.75,3422.51L1523.55,3422.51C1522.42,3422.51 1521.45,3422.92 1520.63,3423.73C1519.81,3424.55 1519.4,3425.52 1519.4,3426.66L1519.4,3439.16C1519.4,3440.29 1519.81,3441.27 1520.63,3442.11C1521.45,3442.94 1522.42,3443.36 1523.55,3443.36C1524.72,3443.36 1525.71,3442.94 1526.53,3442.11C1527.35,3441.27 1527.75,3440.29 1527.75,3439.16L1527.75,3422.51Z" style="fill-opacity:0.517647;fill-rule:nonzero;"/>
        <path d="M1544.4,3414.16L1544.4,3410.01L1552.75,3410.01L1552.75,3414.16L1544.4,3414.16ZM1544.4,3447.51L1544.4,3418.36L1552.75,3418.36L1552.75,3447.51L1544.4,3447.51Z" style="fill-opacity:0.517647;fill-rule:nonzero;"/>
        <path d="M1565.25,3410.01L1573.55,3410.01L1573.55,3418.36L1577.75,3418.36L1577.75,3422.51L1573.55,3422.51L1573.55,3439.16C1573.55,3440.52 1574,3441.57 1574.9,3442.28C1575.8,3443 1576.62,3443.36 1577.35,3443.36L1577.75,3443.36L1577.75,3447.51L1573.55,3447.51C1571.29,3447.51 1569.34,3446.69 1567.7,3445.06C1566.07,3443.42 1565.25,3441.46 1565.25,3439.16L1565.25,3422.51L1561.05,3422.51L1561.05,3418.36L1565.25,3418.36L1565.25,3410.01Z" style="fill-opacity:0.517647;fill-rule:nonzero;"/>
        <path d="M1586.05,3447.51L1586.05,3410.01L1594.4,3410.01L1594.4,3422.51C1594.57,3421.11 1595,3420.07 1595.7,3419.38C1596.4,3418.7 1597.35,3418.36 1598.55,3418.36L1602.75,3418.36C1605.02,3418.36 1606.97,3419.17 1608.6,3420.81C1610.24,3422.44 1611.05,3424.39 1611.05,3426.66L1611.05,3447.51L1602.75,3447.51L1602.75,3426.66C1602.75,3425.52 1602.35,3424.55 1601.53,3423.73C1600.71,3422.92 1599.72,3422.51 1598.55,3422.51C1597.42,3422.51 1596.45,3422.92 1595.63,3423.73C1594.81,3424.55 1594.4,3425.52 1594.4,3426.66L1594.4,3447.51L1586.05,3447.51Z" style="fill-opacity:0.517647;fill-rule:nonzero;"/>
        <path d="M1644.4,3418.36L1644.4,3447.51L1636.1,3447.51L1636.1,3443.36C1635.77,3446.12 1634.37,3447.51 1631.9,3447.51L1627.75,3447.51C1625.49,3447.51 1623.53,3446.69 1621.88,3445.06C1620.23,3443.42 1619.4,3441.46 1619.4,3439.16L1619.4,3418.36L1627.75,3418.36L1627.75,3439.16C1627.75,3440.29 1628.16,3441.27 1628.98,3442.11C1629.8,3442.94 1630.77,3443.36 1631.9,3443.36C1633.07,3443.36 1634.06,3442.94 1634.88,3442.11C1635.7,3441.27 1636.1,3440.29 1636.1,3439.16L1636.1,3418.36L1644.4,3418.36Z" style="fill-opacity:0.517647;fill-rule:nonzero;"/>
        <path d="M1652.75,3447.51L1652.75,3410.01L1661.1,3410.01L1661.1,3422.51C1661.27,3421.11 1661.7,3420.07 1662.4,3419.38C1663.1,3418.7 1664.05,3418.36 1665.25,3418.36L1669.45,3418.36C1671.72,3418.36 1673.67,3419.17 1675.3,3420.81C1676.94,3422.44 1677.75,3424.39 1677.75,3426.66L1677.75,3439.16C1677.75,3441.42 1676.94,3443.38 1675.3,3445.03C1673.67,3446.68 1671.72,3447.51 1669.45,3447.51L1652.75,3447.51ZM1661.1,3443.36L1665.25,3443.36C1666.42,3443.36 1667.41,3442.94 1668.23,3442.11C1669.05,3441.27 1669.45,3440.29 1669.45,3439.16L1669.45,3426.66C1669.45,3425.52 1669.05,3424.55 1668.23,3423.73C1667.41,3422.92 1666.42,3422.51 1665.25,3422.51C1664.12,3422.51 1663.15,3422.92 1662.33,3423.73C1661.51,3424.55 1661.1,3425.52 1661.1,3426.66L1661.1,3443.36Z" style="fill-opacity:0.517647;fill-rule:nonzero;"/>
        <rect x="1686.1" y="3439.16" width="8.35" height="8.35" style="fill-opacity:0.517647;fill-rule:nonzero;"/>
        <path d="M1723.6,3426.66L1719.45,3426.66C1719.12,3423.89 1717.72,3422.51 1715.25,3422.51C1714.12,3422.51 1713.15,3422.92 1712.33,3423.73C1711.51,3424.55 1711.1,3425.52 1711.1,3426.66L1711.1,3439.16C1711.1,3440.29 1711.51,3441.27 1712.33,3442.11C1713.15,3442.94 1714.12,3443.36 1715.25,3443.36C1717.72,3443.36 1719.12,3441.96 1719.45,3439.16L1723.6,3439.16C1723.27,3444.72 1720.49,3447.51 1715.25,3447.51L1711.1,3447.51C1708.84,3447.51 1706.88,3446.69 1705.23,3445.06C1703.58,3443.42 1702.75,3441.46 1702.75,3439.16L1702.75,3426.66C1702.75,3424.39 1703.58,3422.44 1705.23,3420.81C1706.88,3419.17 1708.84,3418.36 1711.1,3418.36L1715.25,3418.36C1720.52,3418.36 1723.3,3421.12 1723.6,3426.66Z" style="fill-opacity:0.517647;fill-rule:nonzero;"/>
        <path d="M1740.25,3418.36L1748.6,3418.36C1750.87,3418.36 1752.82,3419.17 1754.45,3420.81C1756.09,3422.44 1756.9,3424.39 1756.9,3426.66L1756.9,3439.16C1756.9,3441.42 1756.09,3443.38 1754.45,3445.03C1752.82,3446.68 1750.87,3447.51 1748.6,3447.51L1740.25,3447.51C1737.99,3447.51 1736.03,3446.69 1734.38,3445.06C1732.73,3443.42 1731.9,3441.46 1731.9,3439.16L1731.9,3426.66C1731.9,3424.39 1732.73,3422.44 1734.38,3420.81C1736.03,3419.17 1737.99,3418.36 1740.25,3418.36ZM1740.25,3426.66L1740.25,3439.16C1740.25,3440.29 1740.66,3441.27 1741.48,3442.11C1742.3,3442.94 1743.27,3443.36 1744.4,3443.36C1745.57,3443.36 1746.56,3442.94 1747.38,3442.11C1748.2,3441.27 1748.6,3440.29 1748.6,3439.16L1748.6,3426.66C1748.6,3425.52 1748.2,3424.55 1747.38,3423.73C1746.56,3422.92 1745.57,3422.51 1744.4,3422.51C1743.27,3422.51 1742.3,3422.92 1741.48,3423.73C1740.66,3424.55 1740.25,3425.52 1740.25,3426.66Z" style="fill-opacity:0.517647;fill-rule:nonzero;"/>
        <path d="M1790.25,3447.51L1781.95,3447.51L1781.95,3426.66C1781.95,3425.52 1781.55,3424.55 1780.73,3423.73C1779.91,3422.92 1778.92,3422.51 1777.75,3422.51C1776.62,3422.51 1775.65,3422.92 1774.83,3423.73C1774.01,3424.55 1773.6,3425.52 1773.6,3426.66L1773.6,3447.51L1765.25,3447.51L1765.25,3418.36L1773.6,3418.36L1773.6,3422.51C1773.77,3421.11 1774.2,3420.07 1774.9,3419.38C1775.6,3418.7 1776.55,3418.36 1777.75,3418.36L1781.95,3418.36C1784.79,3418.36 1786.87,3419.34 1788.2,3421.31C1788.87,3420.31 1789.72,3419.57 1790.75,3419.08C1791.79,3418.6 1793.02,3418.36 1794.45,3418.36L1798.6,3418.36C1800.87,3418.36 1802.83,3419.17 1804.48,3420.81C1806.13,3422.44 1806.95,3424.39 1806.95,3426.66L1806.95,3447.51L1798.6,3447.51L1798.6,3426.66C1798.6,3425.56 1798.2,3424.59 1797.38,3423.76C1796.56,3422.92 1795.59,3422.51 1794.45,3422.51C1793.32,3422.51 1792.34,3422.92 1791.5,3423.73C1790.67,3424.55 1790.25,3425.52 1790.25,3426.66L1790.25,3447.51Z" style="fill-opacity:0.517647;fill-rule:nonzero;"/>
        <path d="M1815.25,3447.51L1831.95,3405.86L1836.1,3405.86L1819.45,3447.51L1815.25,3447.51Z" style="fill-opacity:0.517647;fill-rule:nonzero;"/>
        <path d="M1844.4,3447.51L1844.4,3410.01L1852.75,3410.01L1852.75,3428.76L1865.25,3418.36L1873.6,3418.36L1856.15,3432.91L1873.6,3447.51L1865.25,3447.51L1852.75,3437.11L1852.75,3447.51L1844.4,3447.51Z" style="fill-opacity:0.517647;fill-rule:nonzero;"/>
        <path d="M1894.45,3430.86L1894.45,3426.66C1894.45,3425.52 1894.05,3424.55 1893.23,3423.73C1892.41,3422.92 1891.42,3422.51 1890.25,3422.51L1886.1,3422.51C1883.64,3422.51 1882.25,3423.89 1881.95,3426.66L1877.75,3426.66C1878.42,3421.12 1881.2,3418.36 1886.1,3418.36L1894.45,3418.36C1896.72,3418.36 1898.67,3419.17 1900.3,3420.81C1901.94,3422.44 1902.75,3424.39 1902.75,3426.66L1902.75,3447.51L1894.45,3447.51L1894.45,3443.36C1894.12,3446.12 1892.72,3447.51 1890.25,3447.51L1886.1,3447.51C1883.84,3447.51 1881.88,3446.69 1880.23,3445.06C1878.58,3443.42 1877.75,3441.46 1877.75,3439.16C1877.75,3436.89 1878.58,3434.94 1880.23,3433.31C1881.88,3431.67 1883.84,3430.86 1886.1,3430.86L1894.45,3430.86ZM1894.45,3435.01L1890.25,3435.01C1889.12,3435.01 1888.15,3435.42 1887.33,3436.23C1886.51,3437.05 1886.1,3438.02 1886.1,3439.16C1886.1,3440.29 1886.51,3441.27 1887.33,3442.11C1888.15,3442.94 1889.12,3443.36 1890.25,3443.36C1891.42,3443.36 1892.41,3442.94 1893.23,3442.11C1894.05,3441.27 1894.45,3440.29 1894.45,3439.16L1894.45,3435.01Z" style="fill-opacity:0.517647;fill-rule:nonzero;"/>
        <path d="M1919.45,3447.51L1911.1,3447.51L1911.1,3418.36L1919.45,3418.36L1919.45,3426.66C1919.79,3423.89 1920.65,3421.82 1922.03,3420.43C1923.41,3419.05 1925.34,3418.36 1927.8,3418.36L1931.95,3418.36L1931.95,3426.66L1923.6,3426.66C1922.47,3426.66 1921.5,3427.07 1920.68,3427.88C1919.86,3428.7 1919.45,3429.69 1919.45,3430.86L1919.45,3447.51Z" style="fill-opacity:0.517647;fill-rule:nonzero;"/>
        <path d="M1944.45,3418.36L1952.8,3418.36C1955.07,3418.36 1957.02,3419.17 1958.65,3420.81C1960.29,3422.44 1961.1,3424.39 1961.1,3426.66L1961.1,3439.16C1961.1,3441.42 1960.29,3443.38 1958.65,3445.03C1957.02,3446.68 1955.07,3447.51 1952.8,3447.51L1944.45,3447.51C1942.19,3447.51 1940.23,3446.69 1938.58,3445.06C1936.93,3443.42 1936.1,3441.46 1936.1,3439.16L1936.1,3426.66C1936.1,3424.39 1936.93,3422.44 1938.58,3420.81C1940.23,3419.17 1942.19,3418.36 1944.45,3418.36ZM1944.45,3426.66L1944.45,3439.16C1944.45,3440.29 1944.86,3441.27 1945.68,3442.11C1946.5,3442.94 1947.47,3443.36 1948.6,3443.36C1949.77,3443.36 1950.76,3442.94 1951.58,3442.11C1952.4,3441.27 1952.8,3440.29 1952.8,3439.16L1952.8,3426.66C1952.8,3425.52 1952.4,3424.55 1951.58,3423.73C1950.76,3422.92 1949.77,3422.51 1948.6,3422.51C1947.47,3422.51 1946.5,3422.92 1945.68,3423.73C1944.86,3424.55 1944.45,3425.52 1944.45,3426.66Z" style="fill-opacity:0.517647;fill-rule:nonzero;"/>
        <rect x="1969.45" y="3410.01" width="8.35" height="37.5" style="fill-opacity:0.517647;fill-rule:nonzero;"/>
        <rect x="1986.1" y="3430.86" width="20.85" height="4.15" style="fill-opacity:0.517647;fill-rule:nonzero;"/>
        <path d="M2040.25,3447.51L2031.95,3447.51L2031.95,3443.36C2031.62,3446.12 2030.22,3447.51 2027.75,3447.51L2023.6,3447.51C2021.34,3447.51 2019.38,3446.69 2017.73,3445.06C2016.08,3443.42 2015.25,3441.46 2015.25,3439.16L2015.25,3426.66C2015.25,3424.39 2016.08,3422.44 2017.73,3420.81C2019.38,3419.17 2021.34,3418.36 2023.6,3418.36L2031.95,3418.36L2031.95,3410.01L2040.25,3410.01L2040.25,3447.51ZM2031.95,3422.51L2027.75,3422.51C2026.62,3422.51 2025.65,3422.92 2024.83,3423.73C2024.01,3424.55 2023.6,3425.52 2023.6,3426.66L2023.6,3439.16C2023.6,3440.29 2024.01,3441.27 2024.83,3442.11C2025.65,3442.94 2026.62,3443.36 2027.75,3443.36C2028.92,3443.36 2029.91,3442.94 2030.73,3442.11C2031.55,3441.27 2031.95,3440.29 2031.95,3439.16L2031.95,3422.51Z" style="fill-opacity:0.517647;fill-rule:nonzero;"/>
        <path d="M2073.6,3435.01L2056.95,3435.01L2056.95,3439.16C2056.95,3440.29 2057.36,3441.27 2058.18,3442.11C2059,3442.94 2059.97,3443.36 2061.1,3443.36L2065.3,3443.36C2068.07,3443.36 2069.45,3441.96 2069.45,3439.16L2073.6,3439.16C2072.97,3444.72 2070.2,3447.51 2065.3,3447.51L2056.95,3447.51C2054.69,3447.51 2052.73,3446.69 2051.08,3445.06C2049.43,3443.42 2048.6,3441.46 2048.6,3439.16L2048.6,3426.66C2048.6,3424.39 2049.43,3422.44 2051.08,3420.81C2052.73,3419.17 2054.69,3418.36 2056.95,3418.36L2065.3,3418.36C2067.57,3418.36 2069.52,3419.17 2071.15,3420.81C2072.79,3422.44 2073.6,3424.39 2073.6,3426.66L2073.6,3435.01ZM2056.95,3430.86L2065.3,3430.86L2065.3,3426.66C2065.3,3425.52 2064.9,3424.55 2064.08,3423.73C2063.26,3422.92 2062.27,3422.51 2061.1,3422.51C2059.97,3422.51 2059,3422.92 2058.18,3423.73C2057.36,3424.55 2056.95,3425.52 2056.95,3426.66L2056.95,3430.86Z" style="fill-opacity:0.517647;fill-rule:nonzero;"/>
        <path d="M2081.95,3418.36L2090.3,3418.36L2090.3,3422.51C2090.3,3421.11 2090.65,3420.07 2091.35,3419.38C2092.05,3418.7 2093.09,3418.36 2094.45,3418.36L2098.65,3418.36C2100.92,3418.36 2102.87,3419.17 2104.5,3420.81C2106.14,3422.44 2106.95,3424.39 2106.95,3426.66L2106.95,3439.16C2106.95,3441.46 2106.14,3443.42 2104.5,3445.06C2102.87,3446.69 2100.92,3447.51 2098.65,3447.51L2090.3,3447.51L2090.3,3455.86L2081.95,3455.86L2081.95,3418.36ZM2090.3,3443.36L2094.45,3443.36C2095.62,3443.36 2096.61,3442.95 2097.43,3442.13C2098.25,3441.32 2098.65,3440.32 2098.65,3439.16L2098.65,3426.66C2098.65,3425.52 2098.25,3424.55 2097.43,3423.73C2096.61,3422.92 2095.62,3422.51 2094.45,3422.51C2093.32,3422.51 2092.35,3422.92 2091.53,3423.73C2090.71,3424.55 2090.3,3425.52 2090.3,3426.66L2090.3,3443.36Z" style="fill-opacity:0.517647;fill-rule:nonzero;"/>
        <path d="M2115.3,3447.51L2115.3,3410.01L2123.65,3410.01L2123.65,3428.76L2136.15,3418.36L2144.5,3418.36L2127.05,3432.91L2144.5,3447.51L2136.15,3447.51L2123.65,3437.11L2123.65,3447.51L2115.3,3447.51Z" style="fill-opacity:0.517647;fill-rule:nonzero;"/>
        <path d="M2165.35,3430.86L2165.35,3426.66C2165.35,3425.52 2164.95,3424.55 2164.13,3423.73C2163.31,3422.92 2162.32,3422.51 2161.15,3422.51L2157,3422.51C2154.54,3422.51 2153.15,3423.89 2152.85,3426.66L2148.65,3426.66C2149.32,3421.12 2152.1,3418.36 2157,3418.36L2165.35,3418.36C2167.62,3418.36 2169.57,3419.17 2171.2,3420.81C2172.84,3422.44 2173.65,3424.39 2173.65,3426.66L2173.65,3447.51L2165.35,3447.51L2165.35,3443.36C2165.02,3446.12 2163.62,3447.51 2161.15,3447.51L2157,3447.51C2154.74,3447.51 2152.78,3446.69 2151.13,3445.06C2149.48,3443.42 2148.65,3441.46 2148.65,3439.16C2148.65,3436.89 2149.48,3434.94 2151.13,3433.31C2152.78,3431.67 2154.74,3430.86 2157,3430.86L2165.35,3430.86ZM2165.35,3435.01L2161.15,3435.01C2160.02,3435.01 2159.05,3435.42 2158.23,3436.23C2157.41,3437.05 2157,3438.02 2157,3439.16C2157,3440.29 2157.41,3441.27 2158.23,3442.11C2159.05,3442.94 2160.02,3443.36 2161.15,3443.36C2162.32,3443.36 2163.31,3442.94 2164.13,3442.11C2164.95,3441.27 2165.35,3440.29 2165.35,3439.16L2165.35,3435.01Z" style="fill-opacity:0.517647;fill-rule:nonzero;"/>
        <path d="M2182,3447.51L2198.7,3405.86L2202.85,3405.86L2186.2,3447.51L2182,3447.51Z" style="fill-opacity:0.517647;fill-rule:nonzero;"/>
        <path d="M2211.15,3447.51L2211.15,3410.01L2227.85,3410.01C2230.12,3410.01 2232.07,3410.83 2233.7,3412.48C2235.34,3414.13 2236.15,3416.09 2236.15,3418.36L2236.15,3422.51C2236.15,3424.77 2235.34,3426.73 2233.7,3428.38C2232.07,3430.03 2230.12,3430.86 2227.85,3430.86L2219.5,3430.86L2219.5,3447.51L2211.15,3447.51ZM2219.5,3426.66L2223.65,3426.66C2224.82,3426.66 2225.81,3426.25 2226.63,3425.43C2227.45,3424.62 2227.85,3423.64 2227.85,3422.51L2227.85,3418.36C2227.85,3417.19 2227.45,3416.2 2226.63,3415.38C2225.81,3414.57 2224.82,3414.16 2223.65,3414.16L2219.5,3414.16L2219.5,3426.66Z" style="fill-opacity:0.517647;fill-rule:nonzero;"/>
        <path d="M2252.85,3418.36L2261.2,3418.36C2263.47,3418.36 2265.42,3419.17 2267.05,3420.81C2268.69,3422.44 2269.5,3424.39 2269.5,3426.66L2269.5,3439.16C2269.5,3441.42 2268.69,3443.38 2267.05,3445.03C2265.42,3446.68 2263.47,3447.51 2261.2,3447.51L2252.85,3447.51C2250.59,3447.51 2248.63,3446.69 2246.98,3445.06C2245.33,3443.42 2244.5,3441.46 2244.5,3439.16L2244.5,3426.66C2244.5,3424.39 2245.33,3422.44 2246.98,3420.81C2248.63,3419.17 2250.59,3418.36 2252.85,3418.36ZM2252.85,3426.66L2252.85,3439.16C2252.85,3440.29 2253.26,3441.27 2254.08,3442.11C2254.9,3442.94 2255.87,3443.36 2257,3443.36C2258.17,3443.36 2259.16,3442.94 2259.98,3442.11C2260.8,3441.27 2261.2,3440.29 2261.2,3439.16L2261.2,3426.66C2261.2,3425.52 2260.8,3424.55 2259.98,3423.73C2259.16,3422.92 2258.17,3422.51 2257,3422.51C2255.87,3422.51 2254.9,3422.92 2254.08,3423.73C2253.26,3424.55 2252.85,3425.52 2252.85,3426.66Z" style="fill-opacity:0.517647;fill-rule:nonzero;"/>
        <path d="M2298.7,3426.66L2294.55,3426.66C2294.19,3423.89 2292.87,3422.51 2290.6,3422.51C2289.14,3422.51 2288.04,3422.8 2287.3,3423.38C2286.57,3423.97 2286.2,3424.82 2286.2,3425.96C2286.2,3427.16 2288.22,3428.84 2292.25,3431.01C2295.55,3432.77 2297.45,3434.24 2297.95,3435.41C2298.45,3436.57 2298.7,3437.82 2298.7,3439.16C2298.7,3441.46 2297.89,3443.42 2296.25,3445.06C2294.62,3446.69 2292.65,3447.51 2290.35,3447.51L2286.2,3447.51C2280.64,3447.51 2277.85,3444.72 2277.85,3439.16L2282.05,3439.16C2282.39,3441.96 2283.69,3443.36 2285.95,3443.36C2287.45,3443.36 2288.57,3443.07 2289.3,3442.48C2290.04,3441.9 2290.4,3441.02 2290.4,3439.86C2290.4,3438.69 2288.39,3437.02 2284.35,3434.86C2281.05,3433.09 2279.15,3431.62 2278.63,3430.46C2278.11,3429.29 2277.85,3428.04 2277.85,3426.71C2277.85,3424.41 2278.68,3422.44 2280.33,3420.81C2281.98,3419.17 2283.94,3418.36 2286.2,3418.36L2290.35,3418.36C2295.59,3418.36 2298.37,3421.12 2298.7,3426.66Z" style="fill-opacity:0.517647;fill-rule:nonzero;"/>
        <path d="M2311.2,3410.01L2319.5,3410.01L2319.5,3418.36L2323.7,3418.36L2323.7,3422.51L2319.5,3422.51L2319.5,3439.16C2319.5,3440.52 2319.95,3441.57 2320.85,3442.28C2321.75,3443 2322.57,3443.36 2323.3,3443.36L2323.7,3443.36L2323.7,3447.51L2319.5,3447.51C2317.24,3447.51 2315.29,3446.69 2313.65,3445.06C2312.02,3443.42 2311.2,3441.46 2311.2,3439.16L2311.2,3422.51L2307,3422.51L2307,3418.36L2311.2,3418.36L2311.2,3410.01Z" style="fill-opacity:0.517647;fill-rule:nonzero;"/>
        <path d="M2357,3435.01L2340.35,3435.01L2340.35,3439.16C2340.35,3440.29 2340.76,3441.27 2341.58,3442.11C2342.4,3442.94 2343.37,3443.36 2344.5,3443.36L2348.7,3443.36C2351.47,3443.36 2352.85,3441.96 2352.85,3439.16L2357,3439.16C2356.37,3444.72 2353.6,3447.51 2348.7,3447.51L2340.35,3447.51C2338.09,3447.51 2336.13,3446.69 2334.48,3445.06C2332.83,3443.42 2332,3441.46 2332,3439.16L2332,3426.66C2332,3424.39 2332.83,3422.44 2334.48,3420.81C2336.13,3419.17 2338.09,3418.36 2340.35,3418.36L2348.7,3418.36C2350.97,3418.36 2352.92,3419.17 2354.55,3420.81C2356.19,3422.44 2357,3424.39 2357,3426.66L2357,3435.01ZM2340.35,3430.86L2348.7,3430.86L2348.7,3426.66C2348.7,3425.52 2348.3,3424.55 2347.48,3423.73C2346.66,3422.92 2345.67,3422.51 2344.5,3422.51C2343.37,3422.51 2342.4,3422.92 2341.58,3423.73C2340.76,3424.55 2340.35,3425.52 2340.35,3426.66L2340.35,3430.86Z" style="fill-opacity:0.517647;fill-rule:nonzero;"/>
        <path d="M2373.7,3447.51L2365.35,3447.51L2365.35,3418.36L2373.7,3418.36L2373.7,3426.66C2374.04,3423.89 2374.9,3421.82 2376.28,3420.43C2377.66,3419.05 2379.59,3418.36 2382.05,3418.36L2386.2,3418.36L2386.2,3426.66L2377.85,3426.66C2376.72,3426.66 2375.75,3427.07 2374.93,3427.88C2374.11,3428.7 2373.7,3429.69 2373.7,3430.86L2373.7,3447.51Z" style="fill-opacity:0.517647;fill-rule:nonzero;"/>
        <path d="M2411.2,3426.66L2407.05,3426.66C2406.69,3423.89 2405.37,3422.51 2403.1,3422.51C2401.64,3422.51 2400.54,3422.8 2399.8,3423.38C2399.07,3423.97 2398.7,3424.82 2398.7,3425.96C2398.7,3427.16 2400.72,3428.84 2404.75,3431.01C2408.05,3432.77 2409.95,3434.24 2410.45,3435.41C2410.95,3436.57 2411.2,3437.82 2411.2,3439.16C2411.2,3441.46 2410.39,3443.42 2408.75,3445.06C2407.12,3446.69 2405.15,3447.51 2402.85,3447.51L2398.7,3447.51C2393.14,3447.51 2390.35,3444.72 2390.35,3439.16L2394.55,3439.16C2394.89,3441.96 2396.19,3443.36 2398.45,3443.36C2399.95,3443.36 2401.07,3443.07 2401.8,3442.48C2402.54,3441.9 2402.9,3441.02 2402.9,3439.86C2402.9,3438.69 2400.89,3437.02 2396.85,3434.86C2393.55,3433.09 2391.65,3431.62 2391.13,3430.46C2390.61,3429.29 2390.35,3428.04 2390.35,3426.71C2390.35,3424.41 2391.18,3422.44 2392.83,3420.81C2394.48,3419.17 2396.44,3418.36 2398.7,3418.36L2402.85,3418.36C2408.09,3418.36 2410.87,3421.12 2411.2,3426.66Z" style="fill-opacity:0.517647;fill-rule:nonzero;"/>
    </g>
</svg>
